<svg xmlns="http://www.w3.org/2000/svg" width="600" height="400" viewBox="0 0 600 400"><rect width="100%" height="100%" fill="#0D1B2A"/><path fill="#C9A84C" d="M156.005 214.07h35.65l-13.64-37.28q-1.01-2.48-2.09-5.89-1.09-3.41-2.17-7.36-1.01 3.95-2.1 7.4-1.08 3.44-2.09 6zm28.44-69.75 44.02 112.06h-16.12q-2.71 0-4.42-1.36-1.7-1.35-2.55-3.37l-8.37-22.86h-46.43l-8.37 22.86q-.62 1.79-2.4 3.26t-4.42 1.47h-16.27l44.1-112.06zm77.35 112.06h-19.15v-65.1l-6.89-1.09q-2.25-.46-3.61-1.58-1.36-1.13-1.36-3.22v-7.83h11.86v-5.89q0-6.82 2.06-12.24 2.05-5.43 5.89-9.22 3.83-3.8 9.34-5.82 5.5-2.01 12.4-2.01 5.5 0 10.23 1.47l-.39 9.61q-.08 1.09-.62 1.74-.54.66-1.44 1.01-.89.35-2.05.47-1.16.11-2.48.11-3.41 0-6.08.74-2.68.74-4.54 2.56t-2.83 4.8q-.96 2.99-.96 7.4v5.27h20.69v13.64h-20.07zm57.35 1.24q-10.39 0-15.93-5.85t-5.54-16.16V191.2h-8.14q-1.55 0-2.63-1.01-1.09-1-1.09-3.02v-7.59l12.79-2.09 4.03-21.7q.39-1.55 1.47-2.41 1.09-.85 2.79-.85h9.92v25.03h21.24v13.64h-21.24v43.09q0 3.72 1.82 5.82 1.82 2.09 5 2.09 1.78 0 2.98-.43 1.21-.43 2.1-.89t1.59-.89q.69-.43 1.39-.43.85 0 1.4.43.54.43 1.16 1.28l5.73 9.3q-4.18 3.48-9.61 5.27-5.42 1.78-11.23 1.78m46.26-50.14h36.12q0-3.72-1.05-7.02-1.05-3.29-3.14-5.77t-5.31-3.91q-3.21-1.44-7.47-1.44-8.3 0-13.06 4.73-4.77 4.73-6.09 13.41m48.83 11.55h-49.21q.46 6.12 2.17 10.57 1.7 4.46 4.49 7.37 2.79 2.9 6.63 4.34 3.83 1.43 8.48 1.43t8.02-1.08q3.38-1.09 5.89-2.41 2.52-1.32 4.42-2.4t3.68-1.08q2.41 0 3.57 1.78l5.5 6.97q-3.18 3.72-7.13 6.24t-8.25 4.03-8.76 2.13-8.64.62q-8.29 0-15.43-2.75-7.13-2.75-12.39-8.14-5.27-5.38-8.3-13.33-3.02-7.94-3.02-18.4 0-8.14 2.64-15.31 2.63-7.17 7.55-12.48 4.92-5.3 12.01-8.41 7.1-3.09 16.01-3.09 7.51 0 13.87 2.4 6.35 2.4 10.93 7.01 4.57 4.61 7.17 11.32 2.59 6.7 2.59 15.3 0 4.34-.93 5.85-.93 1.52-3.56 1.52m35.72-37.36 1.17 8.99q3.72-7.13 8.83-11.2 5.12-4.07 12.09-4.07 5.5 0 8.84 2.41l-1.24 14.33q-.39 1.4-1.13 1.98-.73.58-1.97.58-1.16 0-3.45-.39-2.29-.38-4.46-.38-3.18 0-5.66.93-2.47.93-4.45 2.67t-3.49 4.22-2.83 5.66v48.98h-19.14v-79.52h11.24q2.94 0 4.11 1.05 1.16 1.05 1.54 3.76"/></svg>