<svg xmlns="http://www.w3.org/2000/svg" width="600" height="400" viewBox="0 0 600 400"><rect width="100%" height="100%" fill="#C9A84C"/><path fill="#0D1B2A" d="M142.23 230.815h16.19q4.46 0 7.49-1.07 3.04-1.07 4.85-2.85 1.82-1.79 2.62-4.17t.8-5.05q0-2.8-.89-5.03t-2.8-3.81q-1.9-1.58-4.91-2.41-3-.83-7.22-.83h-16.13zm13.63-61.16h-13.63v24.87h12.73q8.22 0 12.41-2.98 4.19-2.97 4.19-9.46 0-6.72-3.8-9.58-3.81-2.85-11.9-2.85m-29.63-12.38h29.63q8.45 0 14.46 1.61 6 1.61 9.84 4.58 3.84 2.98 5.63 7.2 1.78 4.22 1.78 9.52 0 3.03-.89 5.8t-2.77 5.18q-1.87 2.41-4.76 4.37-2.88 1.96-6.87 3.33 17.73 3.99 17.73 19.16 0 5.48-2.08 10.12-2.09 4.64-6.07 8-3.99 3.36-9.82 5.27-5.83 1.9-13.33 1.9h-32.48zm87.64 48.5h27.73q0-2.86-.81-5.39-.8-2.53-2.41-4.43-1.6-1.91-4.07-3.01t-5.74-1.1q-6.37 0-10.03 3.63t-4.67 10.3m37.48 8.86h-37.78q.36 4.7 1.67 8.12t3.45 5.66q2.14 2.23 5.09 3.33 2.94 1.1 6.51 1.1t6.16-.84q2.59-.83 4.52-1.84 1.94-1.01 3.39-1.84 1.46-.84 2.83-.84 1.84 0 2.74 1.37l4.22 5.36q-2.44 2.85-5.47 4.79-3.04 1.93-6.34 3.09t-6.72 1.64q-3.42.47-6.64.47-6.36 0-11.84-2.11-5.47-2.11-9.52-6.25-4.04-4.13-6.36-10.23-2.33-6.1-2.33-14.13 0-6.25 2.03-11.75 2.02-5.51 5.8-9.58 3.78-4.08 9.22-6.46 5.45-2.38 12.29-2.38 5.77 0 10.65 1.85 4.88 1.84 8.39 5.38t5.5 8.69q2 5.14 2 11.75 0 3.33-.72 4.49-.71 1.16-2.74 1.16m33.44 28.68H270.1v-49.98l-5.3-.83q-1.72-.36-2.77-1.22-1.04-.87-1.04-2.47v-6.01h9.11v-4.52q0-5.24 1.57-9.4 1.58-4.17 4.53-7.09 2.94-2.91 7.17-4.46 4.22-1.54 9.52-1.54 4.22 0 7.85 1.13l-.3 7.37q-.06.84-.47 1.34-.42.51-1.1.78-.69.26-1.58.35t-1.91.09q-2.61 0-4.67.57-2.05.56-3.48 1.96t-2.17 3.69-.74 5.68v4.05h15.88v10.47h-15.41zm50.7-62q6.78 0 12.34 2.2 5.57 2.2 9.52 6.25 3.96 4.05 6.1 9.88t2.14 13.03q0 7.26-2.14 13.09t-6.1 9.93q-3.95 4.11-9.52 6.31-5.56 2.2-12.34 2.2-6.85 0-12.44-2.2t-9.55-6.31q-3.95-4.1-6.13-9.93-2.17-5.83-2.17-13.09 0-7.2 2.17-13.03 2.18-5.83 6.13-9.88 3.96-4.05 9.55-6.25t12.44-2.2m0 51.59q7.61 0 11.27-5.12t3.66-14.99q0-9.88-3.66-15.06-3.66-5.17-11.27-5.17-7.74 0-11.46 5.2-3.72 5.21-3.72 15.03 0 9.81 3.72 14.96t11.46 5.15m54.32-46.95.89 6.9q2.86-5.47 6.79-8.59 3.92-3.13 9.28-3.13 4.22 0 6.78 1.85l-.95 11q-.3 1.08-.86 1.52-.57.45-1.52.45-.89 0-2.65-.3-1.75-.3-3.42-.3-2.44 0-4.34.72-1.91.71-3.42 2.05-1.52 1.34-2.68 3.24-1.16 1.91-2.17 4.35v37.6h-14.7v-61.05h8.63q2.26 0 3.15.81.89.8 1.19 2.88m43.02 19.82h27.73q0-2.86-.81-5.39-.8-2.53-2.41-4.43-1.6-1.91-4.07-3.01t-5.74-1.1q-6.37 0-10.03 3.63t-4.67 10.3m37.48 8.86h-37.78q.36 4.7 1.67 8.12t3.45 5.66q2.14 2.23 5.09 3.33 2.94 1.1 6.51 1.1t6.16-.84q2.59-.83 4.52-1.84 1.94-1.01 3.39-1.84 1.46-.84 2.83-.84 1.84 0 2.74 1.37l4.22 5.36q-2.44 2.85-5.47 4.79-3.04 1.93-6.34 3.09t-6.72 1.64q-3.42.47-6.64.47-6.36 0-11.84-2.11-5.47-2.11-9.52-6.25-4.04-4.13-6.36-10.23-2.33-6.1-2.33-14.13 0-6.25 2.03-11.75 2.02-5.51 5.8-9.58 3.78-4.08 9.22-6.46 5.45-2.38 12.29-2.38 5.77 0 10.65 1.85 4.88 1.84 8.39 5.38t5.5 8.69q2 5.14 2 11.75 0 3.33-.72 4.49-.71 1.16-2.74 1.16"/></svg>